PathFileType	4	(X/Y/Z)	c:/Users/goper/Files/vsCode/490R/osim_files/A01/A01_PWS_01.trc
DataRate	CameraRate	NumFrames	NumMarkers	Units                	OrigDataRate	OrigDataStartFrame	OrigNumFrames
120.00	120.00	8	36	mm	120.0	567	1132
                Frame#	Time	Mobility_markerset:LPSIS			Mobility_markerset:LASIS			Mobility_markerset:LTH1			Mobility_markerset:LTH2			Mobility_markerset:LTH3			Mobility_markerset:LTH4			Mobility_markerset:LLFE			Mobility_markerset:LMFE			Mobility_markerset:LSH1			Mobility_markerset:LSH2			Mobility_markerset:LSH3			Mobility_markerset:LSH4			Mobility_markerset:LLMAL			Mobility_markerset:LMMAL			Mobility_markerset:LCAL			Mobility_markerset:LMTP5			Mobility_markerset:LTOE			Mobility_markerset:LMTP1			Mobility_markerset:RPSIS			Mobility_markerset:RASIS			Mobility_markerset:RTH1			Mobility_markerset:RTH2			Mobility_markerset:RTH3			Mobility_markerset:RTH4			Mobility_markerset:RLFE			Mobility_markerset:RMFE			Mobility_markerset:RSH1			Mobility_markerset:RSH2			Mobility_markerset:RSH3			Mobility_markerset:RSH4			Mobility_markerset:RLMAL			Mobility_markerset:RMMAL			Mobility_markerset:RCAL			Mobility_markerset:RMTP1			Mobility_markerset:RTOE			Mobility_markerset:RMTP5		
		X1	Y1	Z1	X2	Y2	Z2	X3	Y3	Z3	X4	Y4	Z4	X5	Y5	Z5	X6	Y6	Z6	X7	Y7	Z7	X8	Y8	Z8	X9	Y9	Z9	X10	Y10	Z10	X11	Y11	Z11	X12	Y12	Z12	X13	Y13	Z13	X14	Y14	Z14	X15	Y15	Z15	X16	Y16	Z16	X17	Y17	Z17	X18	Y18	Z18	X19	Y19	Z19	X20	Y20	Z20	X21	Y21	Z21	X22	Y22	Z22	X23	Y23	Z23	X24	Y24	Z24	X25	Y25	Z25	X26	Y26	Z26	X27	Y27	Z27	X28	Y28	Z28	X29	Y29	Z29	X30	Y30	Z30	X31	Y31	Z31	X32	Y32	Z32	X33	Y33	Z33	X34	Y34	Z34	X35	Y35	Z35	X36	Y36	Z36

567	4.71667	150.51959	1013.99982	350.51941	-95.45603	987.15564	415.96014	-78.02343	671.95789	475.62534	-101.01154	631.29254	464.84396	-130.86780	697.88885	468.93875	-145.71675	655.57001	456.80414	0.00000	0.00000	0.00000	0.00000	0.00000	0.00000	-161.82094	369.41815	412.11292	-171.77087	323.12653	414.90292	-224.02783	376.85779	408.25195	-223.22711	330.67123	409.43338	-235.87540	87.62582	393.36594	-223.32433	85.68085	314.23517	-159.64731	49.38611	356.80066	-382.70743	56.57347	408.42883	-403.65027	84.09143	340.11182	-388.20016	68.81644	307.57944	154.13670	1014.53760	248.73654	-68.37281	949.47632	153.61740	134.31966	653.50916	103.31599	132.98151	609.96857	109.60079	71.97728	647.28772	101.41375	80.96686	605.45575	105.89377	126.86075	463.13617	146.48042	107.13905	472.87119	268.29245	323.07236	357.53171	145.29910	349.35977	321.24979	146.01199	276.60269	316.93268	141.53090	308.53976	285.59061	142.65889	443.59259	166.34378	176.82338	410.68872	167.32860	260.64206	502.23257	173.22842	229.02249	350.98502	44.74297	269.58359	318.57700	53.29364	223.77074	371.36972	39.68867	157.32541
568	4.72500	137.80507	1015.27655	351.29022	-108.11855	988.49646	416.91125	-89.01257	673.35352	477.11160	-111.64453	632.43207	466.56891	-141.97646	698.84613	470.14374	-156.46104	656.33667	458.26123	0.00000	0.00000	0.00000	0.00000	0.00000	0.00000	-168.10594	369.83188	412.98254	-177.32179	323.32648	415.67267	-230.47955	376.19754	409.33075	-229.58746	329.45926	410.04855	-237.10866	87.17881	393.44907	-224.75447	85.45047	314.48975	-160.33641	49.89631	356.76044	-383.53143	53.41321	408.71860	-405.32263	80.91161	340.54050	-389.50436	65.78731	308.04233	141.64783	1014.69775	249.41611	-80.65678	950.08643	155.02103	118.52399	652.61987	103.31613	116.81033	609.08417	109.33896	56.16350	646.65436	101.02901	64.61531	605.05463	105.62489	109.46291	462.10614	145.13184	89.19051	471.66516	267.37656	307.77936	361.10403	145.19835	335.07455	325.70407	145.89381	262.84933	319.67081	140.58812	295.36600	288.96927	142.04323	433.28812	173.56477	176.64496	399.78119	172.87941	260.05627	490.65796	184.08446	228.96339	348.99026	46.03913	269.82187	316.69217	52.55756	223.89502	369.13690	41.77515	157.21440
569	4.73333	125.38557	1016.66956	351.87527	-120.59505	989.92902	418.13144	-99.71068	674.61407	478.61420	-121.10334	634.87006	466.53949	-152.97449	699.72791	471.54367	-166.92349	657.32031	459.86063	0.00000	0.00000	0.00000	0.00000	0.00000	0.00000	-174.22334	370.19653	413.85974	-182.47339	323.58185	416.39224	-236.69150	375.52802	410.39636	-234.19264	329.40884	411.30902	-238.14569	86.72269	393.57919	-226.08842	85.28325	314.85306	-161.09482	50.29138	356.71564	-384.13602	50.88958	409.02649	-406.02283	78.05021	341.19016	-390.32184	63.44813	308.27304	129.29251	1014.87891	249.85153	-94.21213	951.70447	157.64055	102.07378	651.35394	103.17178	99.82131	607.79730	108.98613	40.97321	645.79779	101.07066	47.81808	604.36768	105.22814	90.57193	460.35217	144.34482	70.14746	470.16058	266.33853	291.52371	364.68677	145.05400	319.76727	330.02606	145.89699	248.27809	322.04233	140.07329	281.08304	292.29013	141.51038	421.92029	181.32356	176.78722	387.89069	178.66875	259.89133	477.96649	195.62756	229.13774	346.41766	47.96022	270.49295	313.48843	52.72996	224.08908	366.25244	45.04141	157.14095
570	4.74167	113.24105	1018.15125	352.27481	-132.73785	991.43530	419.39960	-108.78727	677.30768	478.28915	-130.91713	635.65057	467.88260	-163.27885	700.71381	473.17938	-176.99045	657.83423	461.26569	0.00000	0.00000	0.00000	0.00000	0.00000	0.00000	-180.06160	370.58548	414.84009	-187.67580	323.79349	417.24265	-242.45168	375.06448	411.48495	-240.12950	328.20776	411.91705	-239.23759	86.35147	393.71307	-227.39644	85.13517	315.14896	-161.49623	50.85008	356.77530	-384.69553	48.42613	409.22623	-406.75809	75.23634	341.57333	-391.12549	61.07389	308.49161	117.10950	1015.07391	250.22295	-106.62715	953.12579	159.82684	85.13333	649.72595	102.82591	82.97828	606.40973	109.05585	22.66418	645.32819	100.59156	30.11246	603.46332	104.77831	70.14874	459.05991	142.75751	49.92181	468.18784	265.16837	274.31729	368.24277	144.88196	303.50296	334.41992	145.94649	232.17932	324.67957	140.07552	266.13950	295.66055	141.29082	409.33392	189.71118	177.14420	375.22235	185.01715	260.04755	464.03165	207.76253	229.49141	342.93469	50.89431	270.59232	309.74338	53.74591	224.10988	362.85773	49.55449	157.17038
571	4.75000	101.32346	1019.62628	352.51492	-144.64871	993.13263	420.76300	-118.35673	678.15833	479.72705	-139.97993	636.36395	469.05698	-172.99228	701.03595	474.91611	-186.35480	658.11005	462.72784	0.00000	0.00000	0.00000	0.00000	0.00000	0.00000	-185.88716	370.97131	415.71106	-192.60704	324.03571	418.02881	-248.23415	374.41846	412.49429	-244.57545	328.42322	413.01324	-240.26874	85.99255	393.80136	-228.46457	85.07036	315.47141	-162.05959	51.30916	356.81223	-385.41592	45.86681	409.23260	-407.97458	72.29790	341.99109	-392.19476	58.70763	308.87842	105.20797	1015.27399	250.37445	-118.76907	954.74402	162.10049	68.13785	647.83301	102.72207	64.27162	604.10400	107.94996	5.18657	644.33832	100.30367	12.01725	602.29694	104.32771	49.34849	456.80496	141.43440	29.11244	466.27591	264.10233	256.67111	372.44641	144.83369	286.34866	339.15796	146.05922	215.75735	326.68689	139.39421	250.70197	299.26923	141.78317	396.04865	198.92633	177.80760	362.06223	192.24757	260.45700	448.98645	220.64398	230.12830	338.43781	54.93808	270.83133	306.59756	55.15619	224.20157	359.05692	55.24622	157.36740
572	4.75833	89.65291	1020.99707	352.74185	-156.37866	994.92163	422.19595	-127.21557	678.89423	481.08780	-148.51315	636.89532	470.16739	-182.11662	701.17114	476.66443	-195.18269	658.26532	464.27374	0.00000	0.00000	0.00000	0.00000	0.00000	0.00000	-191.31581	371.33414	416.64984	-197.29660	324.32544	418.77982	-253.80220	373.88113	413.58612	-249.28249	327.93317	413.93488	-241.05396	85.65762	393.98178	-229.45370	85.04803	315.76138	-162.55823	51.73313	356.81537	-385.76373	43.84931	409.32605	-409.16220	70.05964	342.46738	-392.98395	56.76975	309.20786	93.62511	1015.40204	250.51544	-130.28865	956.45782	164.41284	50.18885	645.13318	101.93062	45.62233	601.74860	107.27260	-12.54822	643.21082	99.85475	-6.80642	601.12054	103.89456	27.73947	454.55017	140.17088	7.30484	463.86407	263.02463	237.80295	376.57175	144.80103	268.62183	344.11560	146.38622	198.06895	329.93948	138.93626	234.12347	303.20865	140.86110	381.52594	208.33601	178.61232	347.78152	199.79355	261.09744	432.38483	233.77330	231.04282	332.84265	60.25559	271.14853	300.73279	58.31617	223.86183	354.39737	62.26620	157.79233
573	4.76667	78.29437	1022.18048	352.88474	-167.75507	996.66705	423.61981	-135.72113	679.50873	482.44113	-156.58331	637.29761	471.47885	-190.83841	701.28650	478.46680	-203.39679	658.29474	465.95953	0.00000	0.00000	0.00000	0.00000	0.00000	0.00000	-196.47488	371.69977	417.53894	-201.73871	324.59116	419.60037	-259.07751	373.35941	414.47885	-253.77698	327.36676	414.80658	-241.84969	85.39600	394.11957	-230.40327	85.03714	315.99542	-162.99992	52.13126	356.87106	-386.15973	42.27411	409.37250	-409.83554	68.46037	342.60736	-393.62897	55.37960	309.37030	82.19369	1015.52338	250.63576	-142.12006	958.50037	166.55276	32.24199	642.26959	101.21015	26.58617	598.99103	106.53915	-30.43003	642.27100	99.36792	-26.07940	599.92163	103.29798	5.95463	453.01901	139.56573	-15.67039	461.31192	261.64505	218.34564	381.11185	145.17946	250.62512	349.60126	146.87056	179.90965	333.44128	138.82648	216.77628	307.60867	140.93199	365.85684	218.06534	179.50098	332.68250	207.56349	261.80844	414.06815	246.96382	232.07123	326.04401	66.19881	271.46942	296.27530	61.38950	223.92642	348.71616	70.11308	158.16750
574	4.77500	67.21695	1023.23584	353.05374	-178.82301	998.38416	425.04498	-143.78636	680.03302	483.65247	-164.29518	637.63751	472.81094	-199.24524	701.30048	480.27026	-211.29256	658.07080	467.55521	0.00000	0.00000	0.00000	0.00000	0.00000	0.00000	-201.45024	372.04987	418.36572	-206.11365	324.79578	420.26758	-264.01007	372.91150	415.44919	-258.20782	326.85022	415.53198	-242.47690	85.25008	394.25204	-231.06334	85.08342	316.15192	-163.41463	52.55216	356.96573	-386.50937	41.01048	409.37021	-410.34772	67.04296	342.95197	-394.15091	54.19022	309.54291	71.18310	1015.50598	250.76212	-153.63225	960.40826	168.66431	14.09193	639.24188	100.33824	7.07452	596.21265	105.78233	-48.85178	641.49750	98.91951	-45.53031	598.77509	103.03979	-15.98565	451.29639	138.39883	-39.15994	458.80780	260.32141	198.35507	385.70547	145.66638	230.94716	355.08405	147.46275	161.41682	336.93277	138.67316	198.94958	312.20642	141.01422	349.13568	227.80992	180.62679	316.62885	215.22342	262.60773	394.55099	259.61484	233.39465	318.47247	72.65115	271.65320	289.65115	65.36050	224.25174	342.03668	78.84743	158.78690
